<svg width="30" height="30" viewBox="0 0 30 30" fill="none" xmlns="http://www.w3.org/2000/svg">
<path d="M25.725 24.2126L21.9875 13.7626C21.725 13.0751 21.1375 12.6501 20.4625 12.6501C19.7875 12.6501 19.2125 13.0751 18.925 13.7876L15.2 24.2126C15.025 24.7001 15.275 25.2376 15.7625 25.4126C16.25 25.5876 16.7875 25.3376 16.9625 24.8501L17.7375 22.6876H23.175L23.95 24.8501C24.0875 25.2376 24.45 25.4751 24.8375 25.4751C24.9375 25.4751 25.05 25.4626 25.15 25.4251C25.6375 25.2501 25.8875 24.7126 25.7125 24.2251L25.725 24.2126ZM18.425 20.8001L20.475 15.0626L22.525 20.8001H18.425ZM15.2375 9.8126C12.4125 14.2751 9.86249 16.9751 6.76249 18.7751C6.61249 18.8626 6.44999 18.9001 6.29999 18.9001C5.97499 18.9001 5.66249 18.7376 5.48749 18.4376C5.22499 17.9876 5.37499 17.4126 5.82499 17.1626C8.44998 15.6376 10.6 13.4501 13.0125 9.8251H5.14999C4.63749 9.8251 4.21249 9.4001 4.21249 8.8876C4.21249 8.3751 4.63749 7.9501 5.14999 7.9501H9.83749V5.4751C9.83749 4.9626 10.2625 4.5376 10.775 4.5376C11.2875 4.5376 11.7125 4.9626 11.7125 5.4751V7.9501H16.4C16.9125 7.9501 17.3375 8.3751 17.3375 8.8876C17.3375 9.4001 16.9125 9.8251 16.4 9.8251H15.225L15.2375 9.8126ZM15.2875 18.9001C15.125 18.9001 14.9625 18.8626 14.8125 18.7751C14 18.3001 13.2125 17.7751 12.475 17.2251C12.0625 16.9126 11.975 16.3251 12.2875 15.9126C12.6 15.5001 13.1875 15.4126 13.6 15.7251C14.275 16.2376 15.0125 16.7126 15.7625 17.1501C16.2125 17.4126 16.3625 17.9876 16.1 18.4376C15.925 18.7376 15.6125 18.9001 15.2875 18.9001Z" fill="#8B4AA3"/>
</svg>
